<?xml version="1.0" encoding="UTF-8"?>
<svg id="Camada_2" data-name="Camada 2" xmlns="http://www.w3.org/2000/svg" viewBox="0 0 569.77 114.38">
  <defs>
    <style>
      .cls-1 {
        fill-rule: evenodd;
      }
    </style>
  </defs>
  <g id="Layer_1" data-name="Layer 1">
    <g>
      <g>
        <path d="M171.22,112.41V33.89c0-.39.31-.7.7-.7h19.78c.39,0,.7.31.7.7v78.52c0,.39-.31.7-.7.7h-19.78c-.39,0-.7-.31-.7-.7Z"/>
        <path d="M238.51,31.83c-22.79,0-41.27,18.48-41.27,41.27s18.48,41.27,41.27,41.27,41.27-18.48,41.27-41.27-18.48-41.27-41.27-41.27ZM238.51,93.68c-11.36,0-20.57-9.21-20.57-20.57s9.21-20.57,20.57-20.57,20.57,9.21,20.57,20.57-9.21,20.57-20.57,20.57Z"/>
        <path d="M142.23,112.72l-13.03-26.3c-.12-.24-.36-.39-.62-.39h-9.41c-.39,0-.7.31-.7.7v25.68c0,.39-.31.7-.7.7h-19.21c-.39,0-.7-.31-.7-.7V33.89c0-.39.31-.7.7-.7h39.32c17.73,0,27.8,11.74,27.8,26.6,0,13.44-7.95,20.83-15.2,23.69-.39.15-.55.62-.35.98l15.33,27.61c.26.46-.08,1.04-.61,1.04h-21.99c-.26,0-.51-.15-.62-.39ZM134.75,50.56h-15.6c-.39,0-.7.31-.7.7v16.58c0,.39.31.7.7.7h15.6c5.39,0,9.94-3.47,9.94-8.99s-4.55-8.99-9.94-8.99Z"/>
      </g>
      <g>
        <path d="M18.16,1.76c1.14.51,2.02,1.24,2.64,2.2.62.95.93,2.07.93,3.36s-.31,2.4-.93,3.34c-.62.94-1.5,1.67-2.64,2.18-1.14.51-2.48.77-4.03.77h-2.98v4.47h-4.83V.99h7.81c1.55,0,2.89.26,4.03.77ZM16.08,9.16c.5-.43.76-1.05.76-1.84s-.25-1.42-.76-1.85c-.5-.44-1.25-.66-2.25-.66h-2.69v5h2.69c.99,0,1.74-.22,2.25-.65Z"/>
        <path d="M43.2,13.54h-2.64v4.54h-4.83V.99h7.81c1.55,0,2.89.26,4.03.77,1.14.51,2.02,1.24,2.64,2.2.62.95.93,2.07.93,3.36s-.29,2.32-.87,3.23c-.58.92-1.4,1.64-2.48,2.16l3.69,5.37h-5.17l-3.1-4.54ZM45.49,5.46c-.5-.44-1.25-.66-2.25-.66h-2.69v5h2.69c.99,0,1.74-.22,2.25-.65.5-.43.76-1.05.76-1.84s-.25-1.42-.76-1.85Z"/>
        <path d="M79.18,14.34v3.73h-13.72V.99h13.4v3.73h-8.62v2.88h7.59v3.61h-7.59v3.12h8.93Z"/>
        <path d="M98.36,4.73v3.76h7.54v3.73h-7.54v5.86h-4.83V.99h13.4v3.73h-8.57Z"/>
        <path d="M134.59,14.34v3.73h-13.72V.99h13.4v3.73h-8.62v2.88h7.59v3.61h-7.59v3.12h8.93Z"/>
        <path d="M148.94.99h4.83v17.09h-4.83V.99Z"/>
        <path d="M172.52,4.83h-5.25V.99h15.3v3.83h-5.22v13.25h-4.83V4.83Z"/>
        <path d="M197.74,16.35c-1.41-1.38-2.11-3.34-2.11-5.88V.99h4.83v9.32c0,2.73,1.08,4.1,3.25,4.1s3.22-1.37,3.22-4.1V.99h4.76v9.47c0,2.54-.7,4.5-2.11,5.88-1.41,1.38-3.38,2.07-5.92,2.07s-4.51-.69-5.92-2.07Z"/>
        <path d="M234.1,13.54h-2.64v4.54h-4.83V.99h7.81c1.55,0,2.89.26,4.03.77,1.14.51,2.02,1.24,2.64,2.2.62.95.93,2.07.93,3.36s-.29,2.32-.87,3.23c-.58.92-1.4,1.64-2.48,2.16l3.69,5.37h-5.17l-3.1-4.54ZM236.39,5.46c-.5-.44-1.25-.66-2.25-.66h-2.69v5h2.69c.99,0,1.74-.22,2.25-.65.5-.43.76-1.05.76-1.84s-.25-1.42-.76-1.85Z"/>
        <path d="M267.81,14.76h-7.22l-1.34,3.32h-4.93l7.54-17.09h4.76l7.57,17.09h-5.03l-1.34-3.32ZM266.39,11.2l-2.2-5.47-2.2,5.47h4.39Z"/>
      </g>
      <g>
        <path class="cls-1" d="M23.23,111.84h0c.77-.21,1.58-.31,2.39-.31,2.3,0,4.52.88,6.21,2.43h-5.3c-2.3,0-4.51-.42-6.56-1.18.13-.04.26-.09.39-.13.98-.31,1.91-.6,2.87-.82"/>
        <path class="cls-1" d="M66.24,111.84h0c.97.21,1.89.51,2.87.82.13.04.26.09.39.13-2.04.75-4.25,1.18-6.55,1.18h-5.3c1.68-1.55,3.91-2.43,6.2-2.43.8,0,1.61.1,2.39.31"/>
        <path class="cls-1" d="M2.12,69.57h0c.79-1.62,2.1-2.83,3.64-3.5-2.1-.08-4.16-.89-5.76-2.38.19-.17.39-.33.59-.49,2.17-1.64,4.83-2.13,7.3-1.59-2.27-1.37-3.96-3.64-4.55-6.34.28-.04.57-.06.85-.08,2.3-.11,4.46.59,6.2,1.82-1.15-2.19-1.36-4.8-.48-7.21.23.11.46.23.68.35.98.57,1.82,1.3,2.49,2.14-.11-1.82.38-3.68,1.46-5.25.19.15.37.31.54.48.71.69,1.27,1.49,1.68,2.34.31-1.72,1.2-3.33,2.59-4.51.13.18.24.36.36.55,1.92,3.28,1.14,7.39-1.66,9.77-.13-.18-.25-.36-.36-.55-.07-.13-.14-.25-.21-.38-.18,1.24-.64,2.44-1.38,3.51-.19-.15-.37-.31-.54-.48-.2-.2-.39-.41-.57-.62.11,1.26-.06,2.55-.51,3.78-.23-.11-.46-.23-.68-.36-.17-.1-.34-.2-.51-.31.47.83.82,1.74,1.03,2.71-.28.04-.56.06-.85.08-.95.04-1.89-.05-2.77-.27.47.29.91.63,1.32,1.01-.19.17-.39.33-.59.49-.69.52-1.42.92-2.18,1.21.47.04.93.12,1.39.25-.07.19-.16.38-.25.57-1.55,3.23-5.18,4.78-8.51,3.83.07-.19.15-.38.24-.57"/>
        <path class="cls-1" d="M89.97,68.91c-.03-.4-2.05-.89-3.54-.92-.21,0-.42,0-.62.01.49-.46.89-.98.62-1.2-.35-.28-1.69.06-2.33.56-.22.16-.38.35-.5.52.08-.29.15-.59.16-.82.05-.3-.15-.91-.4-1.53.13.12.28.24.45.34.79.47,2.3.63,2.63.24.24-.29-.21-.78-.77-1.21.16,0,.31,0,.48-.02,1.59-.14,3.71-1,3.74-1.48.03-.48-2.08-.83-3.67-.69-.23.02-.45.05-.67.09.6-.61,1.12-1.3.86-1.53-.34-.29-1.84.28-2.62.96-.22.2-.41.4-.56.6.29-.85.42-1.63.04-1.55-.7.16-1.41.78-1.97,1.44.3-.58.55-1.13.53-1.39,0-.24-.37-.51-.89-.74.94-.04,1.94-.26,2.67-.87.27-.23-.02-.57-.53-.92,0,0,.02,0,.04,0,1.21-.23,2.9-1.36,2.92-2,0-.47-.88-.55-1.83-.47.15-.14.32-.28.47-.43,1.53-1.48,2.99-4.08,2.6-4.56-.38-.48-2.86.98-4.39,2.47-.22.21-.42.43-.61.65.1-1.09.06-2.16-.41-2.15-.6,0-1.67,1.82-1.89,3.11,0,.03,0,.05-.01.07-.17-.45-.34-.82-.51-1.01-.18-.28-.87-.45-1.63-.52.2-.08.42-.19.63-.33.93-.62,1.94-2.22,1.72-2.81-.17-.43-.95-.2-1.72.19.08-.17.16-.35.24-.54.74-1.86,1.01-4.72.51-5.02-.5-.31-2.04,1.86-2.78,3.72-.07.19-.14.36-.19.55-.3-.91-.7-1.69-1.05-1.54-.51.2-.73,2.21-.44,3.47.04.21.11.42.17.61-.55-.64-1.09-1.16-1.37-1.18h-.05s-.01,0-.02,0c-.17.04-.48.31-.81.64.06-.11.1-.23.15-.35.32-.9.34-2.43-.01-2.64-.25-.16-.62.42-.93,1.1-.01-.15-.03-.31-.06-.46-.23-1.52-1.11-3.36-1.51-3.25-.39.11-.51,2.27-.28,3.79.04.22.08.43.13.63-.55-.42-1.15-.73-1.32-.41-.21.41.38,1.73.99,2.3.18.16.35.28.53.37-.72-.06-1.36.02-1.26.39.4,1.43,2.7,2.71,3.03,2.59.23-.08.92-1.42,1.29-2.78.19.94.6,1.94.98,2.69-.65-.76-1.34-1.32-1.47-.84-.48,1.85,1.01,4.82,1.39,5.02.19.1.96.01,1.78-.32-.4,1.42-.53,2.83-.32,3.02.2.19,1.82.34,3.39.09-.78.93-1.3,1.99-1.3,2.19,0,.36,1.74,2.71,3.36,2.66.37,0,.11-.91-.25-1.74.38.43.86.87,1.4,1.17-1.03.62-1.77,1.77-1.72,2.03.05.34,1.81,2.15,3.51,2.27.39.03.18-.56-.19-1.21.15.14.35.29.58.42.79.47,2.23.75,2.5.45.19-.22-.29-.68-.88-1.09.15.01.3.02.45.02,1.48.04,3.36-.49,3.33-.9ZM78.14,57.24c-.34-.26-1.17-.39-1.94-.39.63-.11,1.46-.39,2.15-.86-.1.4-.17.83-.21,1.25Z"/>
        <path class="cls-1" d="M81.29,72.8h0c1.11-.69,2.84-1.2,3.08-.81.24.39-.86,1.83-1.96,2.52-.11.07-.23.13-.34.19.65.12,1.24.34,1.22.65-.04.42-1.24.85-2.07.78-.21-.02-.41-.05-.59-.11.58.46,1.01.93.75,1.07-.59.31-1.46.19-2.22-.04,0,0,0,0,0,0,.43.13.81.33,1.05.62.17.22-.32.44-.92.6.76.03,1.69.23,2.09.74.19.23-.42.5-1.13.7.2,0,.4.05.61.11.74.22,1.62,1,1.5,1.37-.09.29-.74.25-1.37.12.1.13.19.27.28.42.59,1.04.99,2.67.63,2.87-.36.21-1.64-.86-2.23-1.91-.05-.1-.11-.21-.16-.32-.13.6-.35,1.14-.63,1.1-.38-.05-.73-1.17-.63-1.94.02-.2.07-.38.12-.54-.44.52-.88.9-1,.65-.29-.63-.11-1.5.15-2.19-.38.48-.77.82-.89.57-.3-.61-.18-1.45.04-2.1-.59-.08-1.05-.2-1.11-.29-.07-.09.01-.46.18-.92-.75-.21-1.51-.62-1.96-1.08-.17-.18.36-.36.99-.45,0,0,0,0,0-.01-.7-.99-1.27-2.57-.93-2.82.34-.24,1.73.7,2.43,1.69.02.02.04.06.06.09.25-.72.64-1.31.81-1.02.23.37.38.81.49,1.26.12-.62.35-1.22.74-1.56.24-.21.56.44.8,1.2,0-.21.03-.43.09-.66.21-.81,1.01-1.81,1.42-1.71.32.09.3.8.18,1.49.13-.11.28-.21.44-.31"/>
        <path class="cls-1" d="M13.3,79.99h0c-2.03,2.95-5.85,3.94-9,2.49.1-.18.21-.35.33-.53,1.49-2.17,3.95-3.28,6.4-3.14-2.77-.78-4.91-3.1-5.43-5.97.22-.02.44-.03.66-.04,2.94-.02,5.5,1.61,6.81,4.02-.55-1.87-.04-3.95,1.38-5.34.1.11.19.24.27.37,1.47,2.11,1.21,4.87-.47,6.67,0,.02-.01.02-.03.04-.29.35-.58.9-.58.9-.1.18-.21.35-.33.53"/>
        <path class="cls-1" d="M11.22,105.33h0c-.12.08-.24.17-.37.27-2.02-3.01-3.19-6.62-3.19-10.51s1.19-7.54,3.22-10.55c-2.19,4.97-1.82,10.99,1.11,17.32.07.14.11.24.13.3.13.31.68,1.96-.9,3.16"/>
        <path class="cls-1" d="M24.62,95.29h0c-.3-.77-.29-1.52.01-2.24,1.19,2.55,2.5,4.01,3.8,5.25-.43-.11-.71-.23-.88-.3l-.17-.07c-1.21-.44-2.32-1.5-2.75-2.65"/>
        <path class="cls-1" d="M21.38,66.57c-.29.54-.64,1.05-1.02,1.53.75,1.51,1.65,3.98,1.09,6.33-.35,1.42-.83,2.56-1.27,3.55-.55,1.28-1.03,2.39-1.04,3.74.01.25.19,2.79,2.71,2.79h1.06c-.39-3.97,1.42-6.26,1.57-9.55.14-3.01-1.87-6.75-3.1-8.39"/>
        <path class="cls-1" d="M61.96,98h0c-.18.08-.46.19-.88.3,1.29-1.24,2.6-2.71,3.8-5.25.31.72.31,1.47.02,2.24-.44,1.15-1.55,2.21-2.76,2.65l-.17.07Z"/>
        <path class="cls-1" d="M35.72,112.1l-1.4-1.22s-.05-.05-.11-.1l-3.29-2.97c.3-.15.65-.24,1.01-.24,1.25,0,2.27,1.02,2.27,2.27,0,.22-.03.43-.09.62,0,0,2.93,1.37,5.36-.91h0c.09-.5.14-1.01.14-1.54,0-4.75-3.84-8.5-8.59-8.59-2.57-.04-3.63-.62-3.93-.72-2.25-.81-4.49-3.58-3.05-6.28,1.4-2.63,1.84-5.17,1.79-7.1h-3.98c-3.39,0-3.5-3.59-3.5-3.59.01-2.63,1.55-4.29,2.32-7.48.58-2.41-.64-5.08-1.27-6.24,1.57-1.77,2.53-4.11,2.53-6.67,0-2.18-.69-4.2-1.88-5.85l-4.45,6.06c-.47.76-.35,1.69-.06,2.49-.96.04-1.93.25-2.51,1.01l-4.29,5.85c.99.32,2.05.51,3.15.51,2.21,0,4.26-.72,5.93-1.93.51,2.27.55,5.45-4.61,12.67-6.19,8.64-.69,18.82-.32,19.76.38.94.57,2.78-1.17,4.09-1.73,1.32-6.54,4.29-6.54,4.29,0,0,4.18,3.76,10.38,2.82,2.79-.42,5.12-1.48,7.48-2.01.82-.23,1.69-.34,2.59-.34,2.91,0,5.52,1.25,7.34,3.24h10.08c.75,0,1.35-.6,1.35-1.34,0-.19-.04-.36-.11-.53h-8.54Z"/>
        <path class="cls-1" d="M35.96,111.52s-.12-.11-.17-.13c2.47.12,4.05-1.41,4.23-1.6,1.11.49,3.54,1.6,3.54,1.6l.05.03c.06.03.12.07.18.11h-7.84Z"/>
        <path class="cls-1" d="M49.94,103.83h0c-.3.59-.53,1.22-.7,1.87-1.46.27-2.97.41-4.51.41s-3.06-.14-4.52-.41c-.16-.65-.39-1.27-.69-1.86,1.66.38,3.39.58,5.16.58s3.56-.21,5.24-.59"/>
        <path class="cls-1" d="M68.08,66.57c-1.23,1.65-3.23,5.38-3.1,8.39.15,3.29,1.96,5.58,1.57,9.55h1.06c2.51,0,2.69-2.53,2.71-2.79,0-1.35-.49-2.46-1.04-3.74-.43-1-.92-2.13-1.27-3.55-.56-2.35.34-4.82,1.09-6.33-.39-.48-.73-1-1.03-1.53"/>
        <path class="cls-1" d="M77.48,101.87c-.07.14-.11.24-.13.3-.13.31-.68,1.96.91,3.16.1.08.23.17.36.27,2.02-3.01,3.2-6.62,3.2-10.51s-1.19-7.54-3.23-10.55c2.19,4.97,1.83,10.99-1.11,17.32"/>
        <path class="cls-1" d="M76.59,101.87c.38-.94,5.87-11.12-.31-19.76-5.17-7.22-5.12-10.4-4.61-12.67,1.66,1.21,3.71,1.93,5.92,1.93,1.1,0,2.16-.18,3.15-.51l-4.3-5.85c-.58-.76-1.55-.98-2.52-1.01.29-.8.41-1.72-.06-2.49l-4.46-6.06c-1.18,1.65-1.87,3.67-1.87,5.85,0,2.56.95,4.9,2.53,6.67-.63,1.16-1.86,3.83-1.27,6.24.77,3.19,2.3,4.85,2.32,7.48,0,0-.12,3.59-3.51,3.59h-3.99c-.05,1.92.39,4.47,1.79,7.1,1.44,2.7-.81,5.47-3.05,6.28-.31.11-1.36.68-3.93.72-4.75.09-8.6,3.84-8.6,8.59,0,.52.05,1.04.14,1.54,0,0,0,0,0,0,2.42,2.28,5.36.91,5.36.91-.05-.19-.09-.4-.09-.62,0-1.25,1.02-2.27,2.27-2.27.36,0,.71.09,1.02.24l-3.29,2.97c-.06.05-.11.1-.11.1l-1.4,1.22h-8.54c-.07.16-.11.33-.11.53,0,.74.6,1.34,1.35,1.34h10.08c1.82-1.99,4.43-3.24,7.34-3.24.9,0,1.77.11,2.6.34,2.35.53,4.68,1.59,7.47,2.01,6.21.94,10.38-2.82,10.38-2.82,0,0-4.82-2.97-6.54-4.29-1.73-1.31-1.54-3.16-1.17-4.09"/>
        <path class="cls-1" d="M45.85,111.42l.06-.03s2.44-1.11,3.55-1.6c.18.18,1.76,1.72,4.23,1.6-.04.02-.17.13-.17.13h-7.84c.05-.04.11-.07.17-.11"/>
        <g>
          <path class="cls-1" d="M45.81,69.36c-.63-.18-1.43-.28-2.76-.18-1.42.11-1.82.97-1.86,1.31-.04.33-.16,1.62,1.19,1.38,1.44-.26,2.46.13,2.46.13,0,0,.27.11.34.18.15.17.05.39-.16.31,0,0-.12-.06-.3-.14-.42-.18-1.49-.34-2.44-.11-.95.22-2.65,1.42-3.12,3.49-.48,2.07,1.37,1.55,2.42,1.78,2.25.49,3.5,3.01,3.73,3.37.24.35,1.28,1.84,2.51,1.21,1.23-.63,1.02-1.77.83-2.96-.2-1.19.19-3.16.39-4.25.99-4.56-2.98-5.47-3.23-5.54ZM44.7,76.69c-.89,0-1.61-.73-1.61-1.61s.72-1.61,1.61-1.61,1.61.73,1.61,1.61-.72,1.61-1.61,1.61Z"/>
          <path class="cls-1" d="M57.18,89.8l-1.13-1.48s.03-.02.04-.03c.07-.07.15-.14.23-.21,0,0,0,0,0,0,.26-.24.51-.49.76-.74h0c.07-.08.14-.14.2-.22.02-.02.04-.05.06-.07.07-.07.13-.13.19-.2.02-.03.05-.06.08-.09.05-.06.11-.13.17-.19.02-.03.05-.06.07-.09.06-.06.11-.13.17-.2.02-.03.05-.06.07-.09.06-.07.11-.14.17-.21,0-.01.02-.02.03-.04.13-.17.26-.34.38-.52,0,0,.01-.02.02-.02.05-.07.1-.13.14-.2.03-.04.05-.08.08-.11.04-.06.08-.13.13-.19.03-.04.06-.09.08-.13.04-.06.08-.12.12-.19.03-.05.06-.09.09-.14.03-.07.08-.13.11-.19.03-.04.06-.1.09-.15.04-.06.07-.12.11-.19.03-.05.06-.1.09-.15.03-.06.07-.12.1-.18.05-.09.1-.17.14-.26.03-.07.07-.15.11-.23.03-.06.06-.11.09-.18.03-.06.05-.11.08-.17.03-.06.06-.12.09-.18.02-.06.05-.11.07-.17.03-.06.05-.12.08-.19.03-.05.05-.11.08-.17.03-.06.05-.13.08-.2.02-.05.05-.11.07-.17.03-.07.06-.14.08-.21.02-.05.04-.1.06-.16.04-.1.07-.19.1-.28.02-.04.03-.09.05-.14.03-.11.07-.21.1-.32.02-.05.02-.09.04-.14.02-.08.05-.16.07-.24.01-.05.03-.11.04-.16.02-.07.04-.15.06-.22.01-.06.03-.11.04-.17.02-.08.04-.15.06-.23.01-.05.02-.11.04-.16.02-.09.04-.17.06-.24.01-.05.02-.1.03-.16.02-.09.04-.19.05-.28,0-.04.01-.07.02-.11.03-.13.05-.26.07-.39,0-.04,0-.07.02-.1.02-.1.03-.2.04-.3,0-.06,0-.1.01-.15.02-.09.03-.17.04-.26,0-.05,0-.11.01-.16,0-.09.02-.17.02-.25,0-.05.01-.11.01-.16,0-.09.01-.17.01-.26,0-.05.01-.1.01-.15,0-.1,0-.19,0-.28.01-.04.01-.09.01-.13,0-.14,0-.28,0-.42,0-.14,0-.28,0-.42,0-.05,0-.09-.01-.14,0-.09,0-.18,0-.28,0-.05,0-.11-.01-.16,0-.09,0-.17-.01-.26,0-.06,0-.11-.01-.17,0-.08-.01-.16-.02-.25,0-.05,0-.11-.01-.16,0-.09-.02-.17-.04-.26,0-.05,0-.1-.01-.15-.01-.1-.03-.2-.04-.3,0-.04,0-.07-.02-.1-.02-.13-.04-.26-.07-.39,0-.04,0-.08-.02-.11-.02-.09-.04-.19-.05-.29-.01-.05-.02-.1-.03-.15-.02-.08-.04-.16-.06-.24-.01-.05-.02-.11-.04-.17-.02-.08-.04-.15-.06-.23,0-.05-.03-.11-.04-.16-.02-.08-.04-.15-.06-.23-.02-.05-.03-.1-.04-.16-.02-.08-.05-.16-.07-.24-.02-.05-.03-.1-.04-.14-.04-.11-.07-.22-.1-.32-.02-.05-.03-.09-.05-.13-.03-.1-.07-.19-.1-.29-.02-.05-.04-.1-.06-.16-.03-.07-.05-.14-.08-.21-.02-.06-.05-.12-.07-.17-.03-.07-.05-.13-.08-.2-.02-.05-.04-.11-.08-.17-.03-.06-.05-.12-.08-.19-.03-.06-.06-.11-.07-.17-.03-.06-.06-.12-.09-.18-.03-.06-.05-.11-.08-.17-.03-.06-.07-.12-.1-.19-.03-.06-.06-.12-.08-.18-.05-.1-.11-.2-.17-.31-.03-.06-.06-.12-.09-.18-.03-.05-.06-.1-.09-.15-.04-.06-.07-.12-.1-.18-.03-.05-.06-.1-.09-.15-.04-.06-.08-.12-.11-.18-.03-.05-.06-.09-.09-.15-.04-.06-.08-.12-.11-.18-.03-.04-.06-.09-.09-.13-.05-.07-.09-.13-.13-.19l-.08-.11c-.05-.06-.09-.13-.14-.2-.01-.01-.01-.02-.02-.03-.12-.17-.25-.34-.38-.5-.01-.01-.02-.03-.04-.04-.06-.07-.11-.14-.17-.21-.02-.03-.05-.06-.07-.09-.05-.07-.11-.13-.17-.2-.02-.03-.05-.06-.07-.09-.06-.07-.11-.13-.17-.2-.03-.03-.05-.06-.08-.09-.06-.06-.12-.13-.19-.19-.02-.02-.03-.04-.06-.07-.06-.07-.13-.14-.2-.21h0c-.24-.26-.49-.5-.75-.74,0,0,0,0,0,0-.08-.08-.16-.14-.23-.21-.01-.02-.03-.03-.05-.05-.08-.07-.15-.13-.23-.2-.02-.02-.03-.03-.05-.05-.08-.06-.16-.13-.24-.19,0,0,0,0,0,0l1.81-2.39.83,1.8.76-3.13.76-3.13-2.81,1.58-2.81,1.58,1.96.32-1.82,2.41c-.14-.09-.28-.18-.43-.28,0,0-.01,0-.02-.02-.1-.06-.2-.12-.29-.18,0,0-.02,0-.03,0-.71-.43-1.47-.8-2.24-1.12h0c-.9-.37-1.83-.66-2.79-.87-.94-.2-1.91-.34-2.89-.38v-2.69l1.75.93-1.28-2.96-1.28-2.95-2.57,5.91,1.75-.93v2.69c-.98.04-1.94.17-2.87.38-.96.21-1.89.5-2.79.87h0c-.78.32-1.53.69-2.25,1.12,0,0,0,0-.02,0-.09.06-.19.12-.29.18,0,0-.01,0-.02.02-.09.06-.19.12-.28.18l-1.75-2.31,1.96-.32-2.81-1.58-2.81-1.58.77,3.13.76,3.13.84-1.8,1.72,2.28s-.06.05-.1.08c-.01,0-.03.02-.04.03-.08.06-.16.13-.24.19-.02.01-.04.03-.05.04-.08.06-.15.13-.23.2-.02.01-.03.03-.04.05-.08.07-.16.13-.24.21,0,0,0,0,0,0-.26.24-.51.48-.76.74h0c-.06.07-.13.15-.2.22-.02.02-.04.04-.06.07-.07.07-.12.13-.18.2-.03.03-.05.06-.08.09-.05.06-.11.13-.17.2-.03.03-.05.06-.08.09-.06.07-.11.13-.17.2-.02.03-.05.06-.07.09-.05.07-.11.14-.16.21-.01.01-.02.03-.03.04-.14.17-.26.34-.39.52,0,0-.01.02-.02.03-.05.07-.09.13-.14.2-.03.03-.05.07-.08.11-.04.06-.08.12-.12.19-.04.05-.06.09-.09.13-.03.06-.08.12-.12.19-.03.05-.06.09-.09.14-.04.06-.08.12-.11.19-.03.05-.06.1-.09.15-.04.06-.07.12-.11.18-.03.05-.06.1-.09.15-.03.06-.07.12-.1.18-.06.1-.11.2-.16.31-.03.06-.06.12-.09.18-.03.07-.06.12-.09.19-.03.06-.05.11-.08.17-.04.06-.06.12-.09.18-.03.06-.05.11-.08.17-.03.06-.05.13-.09.19-.03.06-.04.12-.07.17-.03.07-.06.13-.08.2-.03.05-.05.11-.08.17-.02.07-.05.14-.08.21-.02.05-.04.1-.06.16-.03.09-.07.19-.1.28-.02.05-.03.08-.04.13-.04.11-.07.22-.11.32-.01.04-.03.09-.04.14-.02.08-.05.16-.07.24-.02.05-.03.1-.05.16-.02.08-.04.15-.06.23-.02.05-.03.11-.04.16-.02.08-.04.15-.05.23-.01.05-.03.11-.04.17-.02.08-.03.16-.05.24-.01.06-.02.1-.03.15-.02.1-.04.2-.05.29,0,.04-.01.08-.02.11-.02.14-.04.27-.07.4,0,.03-.01.07-.02.1-.01.1-.03.2-.04.3,0,.05-.01.1-.02.15,0,.08-.02.17-.03.26,0,.05,0,.11-.01.16,0,.09-.02.17-.02.25,0,.05,0,.11-.01.17,0,.08-.01.17-.01.25,0,.05-.01.11-.01.16,0,.09,0,.19,0,.28v.14c0,.14,0,.27,0,.42s0,.27,0,.42v.13c0,.09,0,.19,0,.28,0,.05,0,.1.01.16,0,.08,0,.17.01.25,0,.05.01.11.01.16,0,.08.01.17.02.25,0,.05,0,.11.01.16,0,.09.02.17.03.26,0,.05.01.1.02.15,0,.1.02.2.04.3,0,.03.01.07.02.1.02.13.04.26.07.39,0,.04.01.07.02.11.02.09.03.19.05.28,0,.05.02.1.03.15.02.08.04.16.05.24,0,.05.03.11.04.16.02.08.03.15.05.23.01.05.03.11.04.17.02.07.04.15.06.22.02.05.03.11.05.16.02.08.05.16.07.24.02.05.03.09.04.14.04.11.07.22.11.33.01.04.02.08.04.12.03.1.06.19.1.29.02.05.04.1.06.15.02.08.05.14.08.21.03.06.04.11.08.17.02.07.05.13.08.2.03.06.04.12.07.17.03.06.06.12.09.19.03.06.05.12.08.17.02.06.06.12.09.19.03.05.05.11.08.17.03.07.06.12.09.19.03.05.06.1.09.16.06.11.11.22.17.32.03.06.07.12.1.18.03.05.06.11.09.16.04.06.07.12.11.18.03.05.06.1.09.15.04.06.07.12.11.19.03.04.06.1.09.15.04.06.08.12.12.18.03.04.06.09.09.13.04.06.09.12.12.19.03.04.05.08.08.12.05.07.09.13.14.2,0,0,.02.02.03.03.12.17.24.34.37.5.02.01.03.03.04.05.05.07.11.14.16.21.02.03.05.06.07.09.05.07.11.13.16.2.03.04.06.06.08.09.06.07.12.13.17.19.03.03.05.06.08.09.06.07.11.13.18.2.01.02.04.04.06.07.07.07.14.14.2.21t0,0c.24.25.5.49.75.73,0,0,0,0,0,0,.08.08.16.14.24.21.01.01.03.03.04.04.04.04.08.08.12.11l-1.04,1.37-1.97-.29-3.18,4.2,2.97.32,1.13,2.79,3.19-4.2-.83-1.83,1.02-1.35c.28.2.57.39.86.57,0,0,.01.01.02.01.09.06.2.12.29.18,0,0,.02,0,.02,0,.72.43,1.47.8,2.25,1.12h0c.9.36,1.83.66,2.79.86.93.21,1.89.34,2.87.39v2.02l-1.75.96v5.27l2.57-1.54,2.58,1.54v-5.27l-1.77-.96v-2.02c.99-.05,1.96-.18,2.9-.39.11-.02.24-.05.36-.08.83-.2,1.65-.46,2.43-.78h0c.78-.32,1.53-.7,2.24-1.12h.03c.09-.07.19-.12.29-.18,0,0,.01,0,.02-.01.34-.21.67-.43,1-.67l1.09,1.45-.83,1.83,3.19,4.2,1.13-2.79,2.98-.32-3.18-4.2-1.97.29ZM59.37,80.7h-4.76c.37-1.55.59-3.18.62-4.86h5.05c-.05,1.7-.36,3.33-.91,4.86ZM59.13,69.51c.62,1.5,1.01,3.13,1.13,4.83h-5.04c-.08-1.68-.34-3.3-.76-4.83h4.68ZM53.24,62.38l-.24.32h-1.91c-.67-.84-1.39-1.61-2.17-2.29,1.55.44,3.01,1.11,4.32,1.97ZM52.2,68.01h-1.19l.76-1.01c.15.33.29.67.43,1.01ZM45.52,59.98c1.25.68,2.42,1.61,3.44,2.72h-3.44v-2.72ZM45.52,64.19h4.65c.28.39.53.8.78,1.21l-1.98,2.61h-3.45v-3.82ZM43.88,59.98v2.72h-3.43c1.02-1.11,2.17-2.03,3.43-2.72ZM43.88,64.19v3.82h-1.72l-2.89-3.82h4.61ZM40.49,60.41c-.77.68-1.51,1.44-2.17,2.29h-.18l-.78-1.03c.98-.53,2.03-.95,3.12-1.26ZM33.89,64.19h.23l1.85,2.45c-.2.45-.38.9-.55,1.37h-4.44c.77-1.42,1.75-2.7,2.9-3.82ZM30.28,69.51h4.68c-.42,1.53-.68,3.15-.76,4.83h-5.04c.12-1.7.51-3.33,1.12-4.83ZM30.03,80.7c-.55-1.53-.87-3.16-.91-4.86h5.05c.03,1.68.25,3.31.62,4.86h-4.76ZM35.33,86.01h-2.06c-1.05-1.13-1.93-2.42-2.6-3.82h4.55c.29.91.64,1.77,1.04,2.6l-.92,1.22ZM35.74,88.17l.5-.66h1.61c.77,1.1,1.67,2.08,2.64,2.92-1.72-.48-3.32-1.25-4.75-2.26ZM36.97,82.19h1.25l-.83,1.09c-.15-.36-.29-.72-.42-1.09ZM43.88,90.86c-1.49-.81-2.83-1.95-3.98-3.35h3.98v3.35ZM43.88,86.01h-5.06c-.22-.35-.43-.7-.63-1.07l2.08-2.75h3.61v3.82ZM45.52,90.87v-3.36h3.99c-1.15,1.41-2.5,2.56-3.99,3.36ZM48.92,90.43c.97-.84,1.86-1.82,2.64-2.92h.2l.97,1.28c-1.18.7-2.45,1.26-3.8,1.64ZM52.89,80.7h-1.14l-2.41-3.19c-.06.56-.07,1.11,0,1.52v.06c.21,1.18.46,2.78-1.2,3.63l2.47,3.27s-.01.01-.02.02h-5.07v-3.79c-.34-.32-.62-.67-.8-.95-.03-.05-.08-.12-.13-.22-.14-.23-.37-.63-.71-1.07v.72h-2.48l1.39-1.83c-.4-.31-.86-.56-1.37-.67-.05,0-.1-.02-.15-.03l-1.91,2.53h-2.84c-.41-1.54-.63-3.17-.66-4.86h2.55c.01-.09.03-.17.05-.26.1-.45.26-.86.44-1.24h-3.02c.08-1.69.36-3.31.82-4.83h1.45l2.25,2.97c.17-.13.33-.26.49-.36-.52-.58-.44-1.42-.4-1.7.06-.6.67-1.79,2.5-1.94.37-.03.72-.04,1.05-.04.74,0,1.36.07,1.97.24h.02c1.14.31,2.26.95,3,1.97l.86-1.14h2.83c.46,1.52.74,3.14.82,4.83h-3.69c-.03.23-.07.46-.12.69l-.04.24c-.04.17-.07.36-.1.56h3.97c-.04,1.69-.27,3.33-.66,4.86ZM52.9,65.53l1.01-1.33h1.61c1.15,1.12,2.14,2.4,2.91,3.82h-4.44c-.31-.86-.67-1.69-1.08-2.49ZM55.77,86.01l-1.99-2.64c.15-.39.29-.77.42-1.18h4.55c-.68,1.4-1.56,2.69-2.61,3.82h-.37Z"/>
          <path class="cls-1" d="M24.69,39.5s0,0,0,0l.29.54c.93-.45,2.06-.11,2.57.8h0v.02l1.77,3.19-1.68.93.78,1.46c4.97-2.22,10.47-3.46,16.25-3.46s11.29,1.24,16.25,3.46l.79-1.48-1.69-.89,1.71-3.26h0s0,0,0,0h0c.51-.96,1.69-1.33,2.65-.83,0,0,0,0,0,0l.51-.95s0,0,0,0l.77-1.41-3.6-1.75-.63,1.47c-.85-.37-1.72-.71-2.59-1.02l.53-1.52-7.73-1.97-.26,1.58c-.95-.14-1.91-.27-2.88-.35l.15-1.6h-7.98l.15,1.6c-.95.09-1.9.2-2.83.35l-.25-1.59-7.74,1.96.54,1.52c-.88.31-1.75.65-2.6,1.02l-.64-1.48-3.64,1.77,1.01,1.88ZM52.56,37.8h0s0-.02,0-.02c.26-1.04,1.32-1.69,2.37-1.43,1.06.26,1.7,1.31,1.45,2.36h0s0,.01,0,.01l-.94,3.87-3.81-.93.95-3.87ZM42.72,37c0-1.08.89-1.95,1.97-1.95s1.95.87,1.96,1.95h0v4.18h-3.93v-4.18ZM34.29,36.33c1.05-.28,2.11.34,2.4,1.38h0s0,.01,0,.01l1.04,3.91-3.79,1.01-1.04-3.9h0c-.28-1.06.34-2.12,1.39-2.41Z"/>
          <path class="cls-1" d="M37.52,31.47l-.35-2.15c-8.37,2.12-.06.02-8.32,2.11l.72,2.06c7.97-2.02.01,0,7.95-2.02Z"/>
          <path class="cls-1" d="M26.77,34.58l-.86-2.01c-3.91,1.9,0,0-3.91,1.9l1.03,1.92c3.73-1.81,0,0,3.74-1.81Z"/>
          <polygon class="cls-1" points="48.78 31.12 48.98 28.92 40.41 28.92 40.58 31.12 48.78 31.12"/>
          <path class="cls-1" d="M60.56,31.44c-8.3-2.12-.01,0-8.3-2.12l-.36,2.17c7.95,2.03.01,0,7.94,2.03l.72-2.08Z"/>
          <path class="cls-1" d="M67.35,34.48c-3.86-1.88,0,0-3.85-1.88l-.87,2.02c3.7,1.8,0,0,3.69,1.8l1.04-1.94Z"/>
          <path class="cls-1" d="M67.66,47.95h-7.55c-4.72-2.09-9.94-3.26-15.43-3.26s-10.72,1.17-15.43,3.26h-7.44v8.8c.71,1.47,1.06,3.04,1.01,4.61-.06,1.96-.35,3.01-.99,4.46.46.58,1.05,1.47,1.61,2.54v-18.72h42.54v18.83c.59-1.12,1.2-2.06,1.68-2.66-.64-1.45-.93-2.5-.99-4.46-.05-1.57.29-3.14,1-4.61v-8.79ZM34.16,47.95c3.33-1,6.86-1.55,10.52-1.55s7.19.54,10.52,1.55h-21.04Z"/>
        </g>
      </g>
    </g>
    <g>
      <path d="M569.19,26.46l-16.87,70.42c-2.25,9.33-10.49,15.84-20.08,15.84h-.06l-67.96-.15c-9.57-.02-17.81-6.53-20.04-15.84l-18.63-77.7c-1.22-5.08-5.72-8.65-10.94-8.65h-48.03c-5.2,0-9.7,3.53-10.94,8.58l-8.48,34.47c-.62,2.51-3.15,4.05-5.67,3.43-2.51-.62-4.05-3.15-3.43-5.67l8.48-34.47c2.27-9.25,10.51-15.72,20.04-15.72h48.03c9.57,0,17.83,6.51,20.08,15.84l18.61,77.72c1.22,5.07,5.72,8.63,10.94,8.63l67.96.15h.04c5.22,0,9.72-3.57,10.94-8.65l16.89-70.4c.81-3.38.04-6.89-2.12-9.61-2.14-2.72-5.37-4.3-8.84-4.3h-69.25c-5.24,0-9.74,3.57-10.96,8.65l-8.81,34.36c-.6,2.51-3.13,4.07-5.65,3.47-2.51-.62-4.07-3.15-3.47-5.67l8.79-34.36c2.25-9.33,10.51-15.84,20.1-15.84h69.25c6.36,0,12.27,2.87,16.21,7.86,3.94,5.01,5.35,11.41,3.87,17.6Z"/>
      <g>
        <path d="M341.55,76.11h-1.63l-2.67-5.2h-2.61l-1.28,5.2h-1.46l3.09-12.38h3.92c2.38,0,3.73,1.28,3.58,3.3-.14,1.95-1.52,3.38-3.63,3.77l2.7,5.31ZM334.99,69.6h2.94c1.78,0,2.92-.92,3.03-2.48.1-1.35-.67-2.08-2.22-2.08h-2.63l-1.13,4.56Z"/>
        <path d="M344.19,71.99c-.04,1.86,1.09,3,2.96,3,.99,0,1.92-.36,2.9-1.11l.66.97c-1.07.96-2.42,1.46-3.79,1.46-2.63,0-4.4-1.88-4.21-4.48.15-2.72,2.65-5.12,5.33-5.07,2.33,0,3.82,1.63,3.64,4.05-.03.41-.14.81-.31,1.16h-7.18ZM350.23,70.71c.1-1.65-.78-2.63-2.35-2.63s-2.96,1.03-3.48,2.63h5.83Z"/>
        <path d="M364.27,62.04l-3.52,14.07h-1.35l.32-1.22c-.84.9-2.08,1.43-3.41,1.43-2.35,0-3.97-1.84-3.78-4.37.16-2.87,2.6-5.22,5.3-5.18,1.52,0,2.78.68,3.36,1.78l1.65-6.51h1.44ZM357.82,68.1c-1.91,0-3.65,1.67-3.8,3.71-.07.94.15,1.71.67,2.29.52.58,1.23.88,2.11.88,1.91,0,3.58-1.73,3.74-3.88.13-1.8-.98-3-2.72-3Z"/>
        <path d="M365.08,71.99c-.04,1.86,1.09,3,2.96,3,.99,0,1.92-.36,2.9-1.11l.66.97c-1.07.96-2.42,1.46-3.79,1.46-2.63,0-4.4-1.88-4.21-4.48.15-2.72,2.65-5.12,5.33-5.07,2.33,0,3.82,1.63,3.64,4.05-.03.41-.14.81-.31,1.16h-7.18ZM371.11,70.71c.1-1.65-.78-2.63-2.35-2.63s-2.96,1.03-3.48,2.63h5.83Z"/>
        <path d="M330.77,81.01h1.46l-3.09,12.38h-1.46l3.09-12.38Z"/>
        <path d="M340.48,88.06l-1.33,5.33h-1.44l1.35-5.37c.08-.34.14-.6.15-.77.09-1.2-.65-1.89-1.87-1.89-1.35,0-2.54.84-2.87,2.25l-1.44,5.78h-1.44l2.27-9.14h1.35l-.22.88c.79-.73,1.71-1.09,2.78-1.09,1.87,0,3.02,1.22,2.89,3-.02.24-.08.58-.19,1.01Z"/>
        <path d="M344.01,90.41c-.05.19-.08.36-.09.51-.08,1.03.65,1.39,1.94,1.39.13,0,.41-.02.87-.04l-.32,1.24c-.36.06-.7.09-1.06.09-1.78,0-3.02-.69-2.89-2.48.01-.21.05-.45.13-.73l1.2-4.84h-1.5l.28-1.29h1.56l.62-2.49h1.44l-.64,2.49h2.87l-.32,1.29h-2.87l-1.22,4.86Z"/>
        <path d="M349.5,89.26c-.04,1.86,1.09,3,2.97,3,.99,0,1.92-.36,2.89-1.11l.66.97c-1.07.96-2.42,1.46-3.78,1.46-2.63,0-4.4-1.88-4.21-4.48.15-2.72,2.65-5.12,5.33-5.07,2.33,0,3.82,1.63,3.64,4.05-.03.41-.14.81-.31,1.16h-7.18ZM355.54,87.98c.1-1.65-.78-2.63-2.36-2.63s-2.96,1.03-3.48,2.63h5.83Z"/>
        <path d="M368.33,84.25l-2.16,8.63c-.64,2.55-2.59,4.09-5.16,4.09-1.74,0-3.28-.77-4.21-2.1l1-.9c.75,1.07,1.9,1.67,3.31,1.67,1.86,0,3.21-1.07,3.64-2.81l.19-.75c-.86.77-2.04,1.22-3.32,1.22-2.38,0-3.98-1.73-3.8-4.07.17-2.83,2.64-5.23,5.35-5.18,1.52,0,2.76.71,3.34,1.78l.38-1.58h1.44ZM363.14,85.38c-2.01,0-3.68,1.63-3.84,3.7-.13,1.73.99,2.89,2.79,2.89,2.01,0,3.64-1.58,3.8-3.66.13-1.73-1-2.93-2.75-2.93Z"/>
        <path d="M375.31,85.55c-.3-.06-.58-.08-.82-.08-1.56,0-2.85,1.03-3.21,2.55l-1.34,5.37h-1.44l2.29-9.14h1.35l-.24.99c.75-.73,1.71-1.11,2.78-1.11.36,0,.67.06.95.15l-.32,1.26Z"/>
        <path d="M385.25,84.25l-2.29,9.14h-1.35l.32-1.22c-.84.9-2.07,1.43-3.41,1.43-2.34,0-3.97-1.86-3.79-4.33.16-2.87,2.62-5.27,5.34-5.22,1.52,0,2.76.69,3.36,1.76l.38-1.56h1.44ZM380.07,85.38c-1.97,0-3.69,1.71-3.84,3.79-.07.92.16,1.65.68,2.23.52.58,1.23.86,2.11.86,1.91,0,3.58-1.74,3.75-3.98.13-1.72-.95-2.91-2.69-2.91Z"/>
        <path d="M397.56,79.32l-3.52,14.07h-1.35l.32-1.22c-.84.9-2.07,1.43-3.4,1.43-2.35,0-3.97-1.84-3.78-4.37.16-2.87,2.6-5.22,5.3-5.18,1.52,0,2.78.68,3.36,1.78l1.65-6.51h1.44ZM391.1,85.38c-1.91,0-3.65,1.67-3.8,3.71-.07.94.15,1.71.67,2.29.52.58,1.23.88,2.11.88,1.91,0,3.58-1.73,3.74-3.88.13-1.8-.98-3-2.72-3Z"/>
        <path d="M407.38,84.25l-2.29,9.14h-1.35l.32-1.22c-.84.9-2.07,1.43-3.41,1.43-2.34,0-3.97-1.86-3.79-4.33.16-2.87,2.62-5.27,5.34-5.22,1.52,0,2.76.69,3.36,1.76l.38-1.56h1.44ZM402.19,85.38c-1.97,0-3.69,1.71-3.84,3.79-.07.92.16,1.65.68,2.23.52.58,1.23.86,2.11.86,1.91,0,3.58-1.74,3.75-3.98.13-1.72-.95-2.91-2.69-2.91Z"/>
        <path d="M424.18,79.32l-3.52,14.07h-1.35l.32-1.22c-.84.9-2.07,1.43-3.4,1.43-2.35,0-3.97-1.84-3.78-4.37.16-2.87,2.6-5.22,5.3-5.18,1.52,0,2.78.68,3.36,1.78l1.65-6.51h1.44ZM417.73,85.38c-1.91,0-3.65,1.67-3.8,3.71-.07.94.15,1.71.67,2.29.52.58,1.23.88,2.11.88,1.91,0,3.58-1.73,3.74-3.88.13-1.8-.98-3-2.72-3Z"/>
        <path d="M424.99,89.26c-.04,1.86,1.09,3,2.97,3,.99,0,1.92-.36,2.89-1.11l.66.97c-1.07.96-2.42,1.46-3.78,1.46-2.63,0-4.4-1.88-4.21-4.48.15-2.72,2.65-5.12,5.33-5.07,2.33,0,3.82,1.63,3.64,4.05-.03.41-.13.81-.31,1.16h-7.18ZM431.03,87.98c.1-1.65-.78-2.63-2.36-2.63s-2.96,1.03-3.48,2.63h5.83Z"/>
        <path d="M331.56,100.52c3.36-.06,5.75,2.61,5.45,5.93-.2,3.7-3.78,6.96-7.41,6.87-3.36.06-5.75-2.61-5.45-5.93.2-3.71,3.74-6.94,7.41-6.87ZM331.35,101.87c-2.86-.06-5.55,2.49-5.69,5.44-.2,2.66,1.53,4.65,4.12,4.65,2.86.06,5.55-2.53,5.71-5.48.2-2.63-1.53-4.61-4.14-4.61ZM334.49,99.52l-1.56-2.03-2.57,2.03h-1.24l3.63-3.49h.88l1.88,3.49h-1.03Z"/>
        <path d="M346.13,107.78l-1.33,5.33h-1.44l1.36-5.37c.08-.34.14-.6.15-.77.09-1.2-.65-1.89-1.87-1.89-1.35,0-2.54.84-2.87,2.25l-1.44,5.78h-1.44l2.27-9.14h1.35l-.22.88c.79-.73,1.72-1.09,2.78-1.09,1.87,0,3.02,1.22,2.89,3-.02.24-.08.58-.19,1.01Z"/>
        <path d="M349.38,103.97h1.44l-2.29,9.14h-1.44l2.29-9.14ZM351.05,99.43c.6,0,1.05.47,1.01,1.05-.04.6-.56,1.05-1.16,1.05s-1.04-.45-.99-1.05c.04-.58.57-1.05,1.15-1.05Z"/>
        <path d="M356.19,113.31c-1.5,0-2.78-.69-3.37-1.8l-.4,1.6h-1.44l3.5-14.07h1.44l-1.54,6.08c.87-.84,2.03-1.35,3.29-1.35,2.35,0,3.97,1.88,3.78,4.41-.16,2.83-2.58,5.18-5.26,5.14ZM357.16,105.1c-1.91,0-3.58,1.74-3.74,3.92-.06.86.16,1.58.67,2.14.52.54,1.21.83,2.1.83,1.93,0,3.63-1.63,3.78-3.68.14-1.89-1-3.21-2.8-3.21Z"/>
        <path d="M362.88,109.2l1.29-5.24h1.44l-1.36,5.42c-.03.13-.06.3-.08.55-.09,1.2.75,2.04,2.02,2.04s2.31-.84,2.65-2.14l1.45-5.87h1.44l-1.47,5.91c-.26,1.03-.78,1.88-1.55,2.5-.78.62-1.66.94-2.7.94-2.06,0-3.42-1.39-3.28-3.32.02-.24.06-.51.13-.79Z"/>
        <path d="M372.62,110.42c.82,1.13,1.48,1.56,2.44,1.56,1.11,0,1.86-.51,1.91-1.28.04-.6-.22-.88-1.32-1.46l-.79-.41c-1.32-.67-1.83-1.41-1.75-2.48.12-1.56,1.43-2.59,3.32-2.59,1.35,0,2.34.52,2.96,1.59l-1.07.83c-.49-.73-1.19-1.09-2.1-1.09-.97,0-1.57.43-1.62,1.16-.04.54.22.86,1.15,1.37l.76.41c1.46.81,2.03,1.41,1.94,2.59-.12,1.6-1.53,2.68-3.5,2.68-1.52,0-2.78-.71-3.45-1.99l1.12-.9Z"/>
      </g>
    </g>
    <rect x="300.95" width="2" height="112.71"/>
  </g>
</svg>